<?xml version="1.0" encoding="UTF-8"?>
<svg id="Layer_1" xmlns="http://www.w3.org/2000/svg" version="1.1" viewBox="0 0 64 64">
  <!-- Generator: Adobe Illustrator 30.3.0, SVG Export Plug-In . SVG Version: 2.1.3 Build 182)  -->
  <defs>
    <style>
      .st0 {
        fill: #00c755;
      }
    </style>
  </defs>
  <path class="st0" d="M46.6,61.2h-29.2c-3.2,0-5.8-2.6-5.8-5.8v-15.6s-.2-.3-.5-.4c-5.5-2.6-8.8-8.5-8.2-14.6.8-7.3,6.8-12.8,13.9-13.1,1.9-3.3,4.7-5.8,8.3-7.3,4.3-1.8,9-1.9,13.4-.2,3.7,1.5,6.7,4.1,8.7,7.5,5.3.2,10.2,3.4,12.6,8.3,1.7,3.5,1.9,7.5.6,11.1-1.3,3.7-4,6.6-7.5,8.3-.3.1-.5.4-.5.4v15.6c0,3.2-2.6,5.8-5.8,5.8ZM17.4,17.4c-4.4,0-8.2,3.4-8.7,7.9-.4,3.7,1.6,7.2,4.9,8.8,2.3,1.1,3.8,3.3,3.8,5.7v15.6h29.2v-15.6c0-2.4,1.4-4.5,3.8-5.7,2.1-1,3.7-2.8,4.5-5s.7-4.6-.4-6.7c-1.6-3.3-5.1-5.3-8.8-4.9-1.3.1-2.5-.6-3-1.7-1.2-2.9-3.5-5.1-6.4-6.2s-6.1-1.1-8.9.1c-2.8,1.2-4.9,3.4-6.1,6.1-.5,1.2-1.7,1.9-3,1.7-.3,0-.6,0-.9,0Z"/>
  <path class="st0" d="M49.5,49.5H14.5c-1.6,0-2.9-1.3-2.9-2.9s1.3-2.9,2.9-2.9h35c1.6,0,2.9,1.3,2.9,2.9s-1.3,2.9-2.9,2.9Z"/>
</svg>